<svg height="384pt" viewBox="0 -16 384 384" width="384pt" xmlns="http://www.w3.org/2000/svg"><path d="m384 80c0-44.113281-35.886719-80-80-80-22.136719 0-42.984375 9.265625-57.984375 25.113281-34.757813-11.839843-73.261719-11.847656-108.039063 0-15-15.847656-35.839843-25.113281-57.976562-25.113281-44.113281 0-80 35.886719-80 80 0 24.167969 11.078125 46.800781 29.433594 61.800781-3.578125 13.710938-5.433594 27.847657-5.433594 42.199219 0 92.632812 75.359375 168 168 168s168-75.367188 168-168c0-14.351562-1.863281-28.496094-5.433594-42.207031 18.355469-14.992188 29.433594-37.625 29.433594-61.792969zm-192 240c-74.992188 0-136-61.007812-136-136 0-14.921875 2.40625-29.542969 7.152344-43.480469.007812-.023437.007812-.046875.015625-.070312.273437-.816407.433593-1.648438.574219-2.480469.035156-.214844.113281-.425781.144531-.632812.105469-.824219.097656-1.648438.066406-2.472657-.007813-.214843.03125-.4375.015625-.664062-.074219-1.023438-.25-2.046875-.519531-3.039063 0 0 0 0 0-.007812-.65625-2.398438-1.921875-4.609375-3.632813-6.496094-.390625-.433594-.753906-.886719-1.191406-1.28125-.191406-.175781-.441406-.304688-.640625-.464844-.625-.503906-1.257813-.988281-1.960937-1.398437-.023438-.007813-.03125-.023438-.054688-.039063-14.777344-8.472656-23.960938-24.359375-23.960938-41.480468 0-26.472657 21.527344-48 48-48 15.847657 0 30.679688 7.855468 39.664063 21.015624.007813.007813.015625.023438.023437.03125.542969.792969 1.167969 1.503907 1.832032 2.175782.082031.089844.152344.191406.242187.28125.496094.480468 1.054688.863281 1.597657 1.273437 1.808593 1.34375 3.832031 2.285157 5.984374 2.78125.183594.042969.351563.121094.527344.152344.898438.167969 1.808594.242187 2.722656.257813.117188 0 .230469.03125.351563.03125 2.085937-.007813 4.183594-.425782 6.167969-1.273438.015625-.007812.03125-.007812.046875-.015625 33.28125-14.214844 72.390625-14.214844 105.664062 0 .015625.007813.03125.007813.046875.015625.992188.425781 2.015625.746094 3.058594.953125.140625.03125.285156.023437.429688.046875.890624.152344 1.785156.265625 2.679687.273438.015625 0 .042969.007812.058594.007812.070312 0 .132812-.03125.207031-.03125 1.296875-.015625 2.566406-.234375 3.816406-.5625.335938-.085938.65625-.175781.984375-.285156 1.285157-.425782 2.542969-.960938 3.695313-1.707032.023437-.015624.039062-.03125.054687-.046874 1.105469-.71875 2.097657-1.632813 3.007813-2.640626.257812-.277343.496094-.566406.738281-.871093.230469-.296875.503906-.535157.710937-.847657 8.984376-13.160156 23.816407-21.015624 39.664063-21.015624 26.472656 0 48 21.527343 48 48 0 17.113281-9.175781 33.007812-23.960937 41.488281-.015626.007812-.023438.023437-.039063.03125-.824219.472656-1.578125 1.03125-2.289063 1.632812-.101562.085938-.222656.152344-.320312.230469-.605469.535156-1.136719 1.152344-1.648438 1.769531-1.230468 1.480469-2.160156 3.152344-2.78125 4.945313-.570312 1.613281-.882812 3.308594-.90625 5.0625-.007812.71875-.03125 1.449218.058594 2.167968.03125.273438.132813.542969.183594.824219.132812.765625.269531 1.535157.527344 2.289063.007812.023437.007812.054687.015625.078125 4.742187 13.9375 7.152343 28.558593 7.152343 43.480469.023438 75-60.984374 136.007812-135.976562 136.007812zm0 0"/><path d="m104.039062 80.023438c0-13.230469-10.765624-24-24-24-13.230468 0-24 10.769531-24 24 0 13.234374 10.769532 24 24 24 13.234376 0 24-10.765626 24-24zm0 0"/><path d="m328.039062 80.023438c0-13.230469-10.765624-24-24-24-13.230468 0-24 10.769531-24 24 0 13.234374 10.769532 24 24 24 13.234376 0 24-10.765626 24-24zm0 0"/><path d="m136 144.023438c4.40625 0 8 3.59375 8 8 0 8.832031 7.167969 16 16 16s16-7.167969 16-16c0-22.054688-17.945312-40-40-40s-40 17.945312-40 40c0 8.832031 7.167969 16 16 16s16-7.167969 16-16c0-4.40625 3.59375-8 8-8zm0 0"/><path d="m248 112.023438c-22.054688 0-40 17.945312-40 40 0 8.832031 7.167969 16 16 16s16-7.167969 16-16c0-4.40625 3.59375-8 8-8s8 3.59375 8 8c0 8.832031 7.167969 16 16 16s16-7.167969 16-16c0-22.054688-17.945312-40-40-40zm0 0"/><path d="m240 232.023438c-8.832031 0-16 7.167968-16 16 0 8.824218-7.175781 16-16 16v-25.375l19.3125-19.3125c4.574219-4.574219 5.945312-11.457032 3.472656-17.441407-2.480468-5.972656-8.3125-9.871093-14.785156-9.871093h-48c-6.472656 0-12.304688 3.898437-14.785156 9.871093-2.480469 5.984375-1.109375 12.859375 3.472656 17.441407l19.3125 19.3125v25.375c-8.824219 0-16-7.175782-16-16 0-8.832032-7.167969-16-16-16s-16 7.167968-16 16c0 26.472656 21.527344 48 48 48h32c26.472656 0 48-21.527344 48-48 0-8.832032-7.160156-16-16-16zm0 0"/></svg>