<?xml version="1.0" encoding="iso-8859-1"?>
<!-- Generator: Adobe Illustrator 19.0.0, SVG Export Plug-In . SVG Version: 6.00 Build 0)  -->
<svg version="1.1" id="Capa_1" xmlns="http://www.w3.org/2000/svg" xmlns:xlink="http://www.w3.org/1999/xlink" x="0px" y="0px"
	 viewBox="0 0 479.552 479.552" style="enable-background:new 0 0 479.552 479.552;" xml:space="preserve">
<path id="XMLID_230_" d="M144.519,56.33c-0.548,4.571-4.434,7.93-8.926,7.93c-0.357,0-0.718-0.021-1.082-0.064l-1.891-0.227
	c-4.935-0.592-8.456-5.072-7.865-10.008s5.067-8.455,10.008-7.865l1.891,0.227C141.588,46.914,145.109,51.394,144.519,56.33z
	 M455.329,227.93c-1.94,0.699-3.966,0.692-5.793,0.104c-1.156,14.857-3.812,30.049-7.959,45.174
	c-9.659,35.216-26.543,66.855-46.721,87.795c11.84,47.181-14.084,96.636-60.859,113.094c-10.354,3.643-21.059,5.455-31.721,5.455
	c-14.077,0-28.085-3.156-41.154-9.422c-22.952-11.004-40.249-30.281-48.708-54.285c-0.005-0.016-0.012-0.032-0.017-0.049
	c-0.006-0.016-0.012-0.032-0.018-0.048c-7.251-20.642-7.224-42.652-0.082-63.004c-20.759-21.496-30.372-53.219-34.804-76.793
	c-4.831-25.696-5.967-54.397-3.173-78.051L67.672,124.176c-5.736-3.965-11.765-10.051-17.515-16.831
	c-1.35-1.592-8.504-10.711-9.798-12.473c-6.915-9.408-16.764-25.232-16.903-25.581c-7.171-17.187-6.902-30.978,0.799-40.996
	c9.302-12.1,28.609-16.616,55.883-13.086c17.916-3.021,35.303-4.809,49.101-5.046c15.535-0.272,24.575,1.457,30.125,3.7l8.056-6.623
	c6.562-5.397,14.856-7.917,23.352-7.085c8.497,0.829,16.148,4.898,21.545,11.461c8.016,9.747,9.269,22.869,4.32,33.633
	l109.558,16.627c0.051,0.008,0.103,0.017,0.153,0.025c75.878,12.857,105.198,59.476,116.435,96.319
	c2.222,7.285,3.943,14.896,5.168,22.764c0.111,0.241,12.799,35.428,12.799,35.428C462.432,221.088,460.006,226.246,455.329,227.93z
	 M70.699,32.334c-2.627-0.193-5.14-0.288-7.522-0.288c-12.198,0-21.021,2.497-24.652,7.221c-3.242,4.218-2.508,10.888-0.629,17.103
	C54.407,53.833,67.558,44.152,70.699,32.334z M220.636,334.976c9.435-15.74,23.053-28.265,39.476-36.336l8.097-47.769
	c-9.503-1.771-19.2-4.61-28.911-8.493c-17.594-7.035-33.968-17.014-48.167-29.278C189.22,251.684,196.707,305.014,220.636,334.976z
	 M225.001,381.331c14.387-14.508,38.257-27.749,63.471-36.622c25.185-8.861,52.069-13.481,72.355-11.2
	c-14.653-16.881-36.117-26.723-58.55-26.723c-8.503,0-17.14,1.412-25.604,4.391c-19.491,6.858-35.146,20.896-44.078,39.528
	C227.921,360.452,225.38,370.844,225.001,381.331z M310.25,406.603c20.753-7.302,39.075-17.146,51.59-27.717
	c11.003-9.294,14.697-16.95,13.478-20.415c-2.681-7.624-33.659-13.396-80.871,3.218c-47.164,16.596-67.708,40.462-65.078,48.109
	c0.003,0.008,0.006,0.017,0.009,0.023c0.003,0.008,0.006,0.017,0.009,0.025C232.122,417.455,263.087,423.199,310.25,406.603z
	 M379.655,386.918c-1.882,1.91-3.949,3.818-6.2,5.72c-14.143,11.946-34.468,22.937-57.23,30.946
	c-25.212,8.87-52.121,13.492-72.419,11.193c6.862,7.938,15.351,14.449,25.098,19.122c18.632,8.933,39.627,10.077,59.119,3.218
	C358.85,446.271,378.513,417.756,379.655,386.918z M425.562,163.472c-13.982-45.854-49.308-74.834-102.15-83.812L198.2,60.658
	c-3.513-0.533-6.383-3.083-7.326-6.508c-0.943-3.426,0.216-7.085,2.96-9.342l2.672-2.197c5.918-4.867,6.773-13.642,1.906-19.56
	c-2.343-2.85-5.678-4.618-9.389-4.979c-3.717-0.364-7.325,0.728-10.173,3.071l-12.941,10.642c-3.592,2.953-8.843,2.685-12.114-0.623
	c-3.79-3.254-26.78-5.025-64.711,0.834C86.55,51.368,69.707,67.362,46.965,72.92c3.115,4.655,6.403,9.325,9.727,13.739
	c10.936-0.915,17.171-5.058,18.026-7.295c1.775-4.643,6.977-6.969,11.621-5.191c4.643,1.775,6.967,6.979,5.191,11.621
	c-2.956,7.729-10.819,13.631-21.508,16.698c2.776,2.831,5.436,5.185,7.885,6.878c0,0,111.912,77.396,112.317,77.789
	c0.151,0.146,0.296,0.295,0.436,0.45c30.214,32.956,76.904,52.071,113.566,46.483c4.914-0.76,9.505,2.629,10.253,7.542
	c0.748,4.914-2.628,9.504-7.542,10.253c-6.696,1.02-13.666,1.368-20.824,1.061l-6.543,38.6c18.752-4.629,37.848-3.298,55.076,2.923
	l-6.649-30.739c-1.051-4.857,2.036-9.648,6.895-10.699c4.858-1.054,9.648,2.036,10.699,6.895l9.728,44.975
	c13.584,9.056,24.941,21.635,32.519,36.992C421.924,301.093,444.241,224.722,425.562,163.472z M310.634,100.921
	c-4.896-0.835-9.546,2.468-10.377,7.369s2.469,9.547,7.369,10.377c30.126,5.105,58.454,23.711,72.168,47.398
	c6.418,11.086,12.512,28.52,5.098,48.622c-1.72,4.663,0.666,9.838,5.33,11.559c1.027,0.379,2.079,0.558,3.113,0.558
	c3.662,0,7.104-2.251,8.445-5.888c7.782-21.1,5.565-43.186-6.409-63.869C379.084,128.916,345.823,106.884,310.634,100.921z"/>
<g>
</g>
<g>
</g>
<g>
</g>
<g>
</g>
<g>
</g>
<g>
</g>
<g>
</g>
<g>
</g>
<g>
</g>
<g>
</g>
<g>
</g>
<g>
</g>
<g>
</g>
<g>
</g>
<g>
</g>
</svg>
