<?xml version="1.0" encoding="iso-8859-1"?>
<!-- Generator: Adobe Illustrator 19.0.0, SVG Export Plug-In . SVG Version: 6.00 Build 0)  -->
<svg version="1.1" id="Layer_1" xmlns="http://www.w3.org/2000/svg" xmlns:xlink="http://www.w3.org/1999/xlink" x="0px" y="0px"
	 viewBox="0 0 511.999 511.999" style="enable-background:new 0 0 511.999 511.999;" xml:space="preserve">
<g>
	<g>
		<circle cx="432.807" cy="182.405" r="7.837"/>
	</g>
</g>
<g>
	<g>
		<path d="M361.621,376.397l-1.431-15.774c-0.347-3.935-2.631-7.415-6.145-9.328l-17.146-9.211l-8.314-64.409l15.518-9.073
			c3.737-2.185,4.995-6.984,2.811-10.721c-2.185-3.738-6.987-4.995-10.721-2.81l-20,11.692c-2.718,1.588-4.22,4.648-3.818,7.769
			l9.233,71.52c0.47,3.777,2.756,7.102,6.094,8.882l17.066,9.168l0.856,9.445h-45.831l-22.417-70.471
			c-0.44-1.382-1.255-2.615-2.354-3.563l-18.934-16.31c-2.397-2.065-5.797-2.487-8.626-1.069
			c-12.07,6.047-22.378,12.532-32.346,18.805c-2.957,1.861-5.864,3.691-8.754,5.465c-17.468,10.749-35.171,20.306-59.702,19.189
			c-1.717-0.07-3.417-0.189-5.061-0.355l-40.305-4.005c1.549-1.914,3.151-3.861,4.792-5.807
			c22.483-26.663,29.805-27.103,30.103-27.108c4.328,0,7.837-3.509,7.837-7.837s-3.509-7.837-7.837-7.837
			c-6.753,0-17.628,3.701-41.979,32.55c-12.65,14.986-22.958,29.717-23.391,30.338c-0.245,0.351-0.461,0.722-0.646,1.109
			l-3.266,6.837c-3.936,8.24-1.126,18.201,6.537,23.171c0.689,0.446,1.125,1.202,1.169,2.021l0.259,4.878H15.683v-9.925
			c0-4.328-3.509-7.837-7.837-7.837c-4.328,0-7.837,3.509-7.837,7.837v13.834c0,6.488,5.279,11.766,11.767,11.766h64.242
			c3.678,0,7.237-1.427,9.921-3.919c2.156,2.42,5.291,3.919,8.79,3.919h62.248c6.676,0,12.148-5.223,12.458-11.885l0.189-3.973
			c0.277-6.234-2.291-12.121-7.048-16.15l-9.241-7.829c-1.201-1.016-1.749-2.605-1.432-4.147l0.807-3.91
			c19.063-0.411,34.517-6.304,48.357-13.721l-5.093,48.635c-0.343,3.309,0.739,6.624,2.966,9.095
			c2.227,2.47,5.411,3.886,8.737,3.886h57.723c3.259,0,6.4-1.369,8.618-3.755c2.218-2.389,3.355-5.624,3.116-8.882l-1.002-13.524
			c-0.282-3.919-2.489-7.42-5.872-9.343l-12.17-7.005l8.838-24.762l18.789,59.067c1.563,4.908,6.073,8.207,11.22,8.207h52.948
			c3.289,0,6.451-1.392,8.678-3.816C360.792,382.983,361.905,379.71,361.621,376.397z M152.443,369.172
			c1.027,0.87,1.582,2.144,1.522,3.471l-0.043,0.905H98.325l-3.069-37.162l41.615,4.135l-0.32,1.551
			c-1.477,7.166,1.074,14.553,6.654,19.275L152.443,369.172z M260.654,366.271l0.54,7.278h-49.178l5.846-55.834
			c1.853-1.156,3.715-2.322,5.601-3.509c8.325-5.238,16.894-10.63,26.399-15.674l6.718,5.787l-14.35,40.205
			c-1.919,5.381,0.287,11.339,5.216,14.147L260.654,366.271z"/>
	</g>
</g>
<g>
	<g>
		<path d="M504.759,196.499c-6.746-2.92-23.128-10.331-31.831-16.982l-15.832-18.312c-8.611-9.976-20.543-16.512-33.6-18.404
			l-57.107-8.255c-0.371-0.053-0.746-0.08-1.121-0.08h-60.581c-7.621-7.472-17.871-11.692-28.658-11.692
			c-10.79,0-21.045,4.22-28.676,11.692h-79.665c-4.328,0-7.837,3.509-7.837,7.837c0,4.328,3.509,7.837,7.837,7.837h83.064
			c2.3,0,4.484-1.01,5.973-2.763c4.822-5.675,11.857-8.93,19.305-8.93c7.442,0,14.469,3.253,19.279,8.924
			c1.489,1.755,3.675,2.768,5.977,2.768h63.42l56.547,8.173c9.318,1.35,17.834,6.014,23.982,13.137l16.343,18.902
			c0.323,0.372,0.678,0.714,1.065,1.02c8.789,6.955,23.686,14.112,33.289,18.371l-2.377,15.123
			c-7.985,5.814-22.232,9.284-28.336,10.356l-84.517-4.644c-4.314-0.25-8.017,3.073-8.255,7.395
			c-0.238,4.322,3.073,8.018,7.396,8.255l85.384,4.692c0.143,0.007,0.286,0.011,0.429,0.011c0.411,0,0.819-0.032,1.225-0.096
			c2.701-0.427,26.749-4.507,39.271-16.054c1.306-1.204,2.164-2.816,2.434-4.571l3.268-20.83
			C512.7,203.949,509.772,198.647,504.759,196.499z"/>
	</g>
</g>
<g>
	<g>
		<path d="M395.568,157.437c-12.926-6.916-21.768-5.368-26.911-2.852c-6.341,3.101-10.597,9.273-11.986,17.378
			c-1.093,6.382,0.269,12.4,3.938,17.4c8.041,10.957,24.522,13.482,26.374,13.735c0.352,0.047,0.705,0.071,1.056,0.071
			c1.721,0,3.404-0.566,4.781-1.628c1.66-1.278,2.739-3.168,2.996-5.246l3.833-30.986
			C400.047,162.093,398.426,158.965,395.568,157.437z M381.364,185.455c-3.164-1.225-6.391-2.995-8.133-5.384
			c-1.146-1.572-1.488-3.256-1.11-5.462c0.298-1.741,1.139-4.827,3.424-5.944c0.752-0.368,1.674-0.549,2.739-0.549
			c1.459,0,3.185,0.341,5.101,1.005L381.364,185.455z"/>
	</g>
</g>
<g>
	<g>
		<path d="M125.137,134.466c-41.739,0-80.741,22.41-101.739,58.401c-0.324,0.54-0.636,1.079-0.937,1.629
			c-0.487,0.853-0.961,1.714-1.379,2.517c-4.516,8.467-7.974,17.484-10.276,26.803c-0.028,0.114-0.04,0.231-0.063,0.346
			c-11.765,42.263-10.76,93.54-10.697,96.269c0.099,4.265,3.588,7.654,7.831,7.654c0.062,0,0.123-0.001,0.184-0.002
			c4.327-0.099,7.753-3.689,7.654-8.014c-0.019-0.806-1.579-80.925,21.172-119.164c0.085-0.142,0.154-0.287,0.229-0.433
			c18.299-31.055,51.981-50.332,88.02-50.332c4.328,0,7.837-3.509,7.837-7.837C132.973,137.975,129.465,134.466,125.137,134.466z"/>
	</g>
</g>
<g>
</g>
<g>
</g>
<g>
</g>
<g>
</g>
<g>
</g>
<g>
</g>
<g>
</g>
<g>
</g>
<g>
</g>
<g>
</g>
<g>
</g>
<g>
</g>
<g>
</g>
<g>
</g>
<g>
</g>
</svg>
