<?xml version="1.0" encoding="iso-8859-1"?>
<!-- Generator: Adobe Illustrator 19.0.0, SVG Export Plug-In . SVG Version: 6.00 Build 0)  -->
<svg xmlns="http://www.w3.org/2000/svg" xmlns:xlink="http://www.w3.org/1999/xlink" version="1.1" id="Layer_1" x="0px" y="0px" viewBox="0 0 511.986 511.986" style="enable-background:new 0 0 511.986 511.986;" xml:space="preserve" fill="#000000" width="512" height="512">
<g>
	<rect x="150.995" y="180.976" width="30" height="30"/>
	<rect x="330.995" y="180.976" width="30" height="30"/>
	<path d="M65.552,470.75c45.592,27.355,94.854,41.226,146.417,41.226h88.052c51.562,0,100.824-13.871,146.417-41.226   c55.533-33.32,79.413-102.25,57.452-162.796l-57.094-164.04l17.71-19.992c27.05-31.407,23.529-78.718-7.883-105.773   c-31.292-26.95-78.654-23.46-105.661,7.754l-30.668,34.073H191.288L160.62,25.902C133.613-5.311,86.25-8.801,54.96,18.149   c-31.407,27.05-34.938,74.361-7.883,105.773l18.003,20.329L8.098,307.959C-13.932,368.703,10.218,437.549,65.552,470.75z    M211.969,481.976c-12.627,0-25.103-0.941-37.407-2.803c-10.099-14.776-14.554-32.485-12.553-50.493l12.963-117.673   c2.536-22.821,21.764-40.031,44.725-40.031h72.595c22.961,0,42.189,17.209,44.724,40.017l12.966,117.701   c2,17.995-2.456,35.703-12.555,50.479c-12.304,1.862-24.78,2.803-37.407,2.803H211.969z M373.58,45.61   c16.193-18.801,44.662-20.923,63.463-4.73c18.782,16.177,20.986,44.511,4.794,63.389l-7.702,8.694   c-15.744-27.521-43.326-46.64-74.669-51.667L373.58,45.61z M74.538,40.88c18.801-16.192,47.271-14.071,63.463,4.73l14.172,15.748   c-31.305,5.131-58.823,24.316-74.481,51.885l-7.947-8.973C53.571,85.412,55.73,57.079,74.538,40.88z M36.331,318.105L98.583,139.25   c10.765-29.476,39.064-49.274,70.45-49.274h173.923c31.388,0,59.688,19.798,70.451,49.276l62.252,178.853   c17.318,47.626-1.462,101.003-44.656,126.92c-18.067,10.84-36.76,19.313-55.973,25.398c4.809-14.295,6.486-29.591,4.771-45.029   l-12.966-117.701c-4.227-38.035-36.272-66.717-74.542-66.717h-72.595c-38.269,0-70.315,28.682-74.543,66.731L132.191,425.38   c-1.716,15.446-0.04,30.746,4.77,45.043c-19.214-6.085-37.908-14.558-55.974-25.398C37.793,419.109,19.012,365.731,36.331,318.105z   "/>
	<path d="M285.995,421.976c-8.271,0-15-6.729-15-15v-76h30v-30h-90v30h30v76c0,8.271-6.729,15-15,15s-15-6.729-15-15h-30   c0,24.813,20.187,45,45,45c11.517,0,22.032-4.354,30-11.495c7.968,7.142,18.483,11.495,30,11.495c24.813,0,45-20.187,45-45h-30   C300.995,415.247,294.266,421.976,285.995,421.976z"/>
</g>















</svg>
