<?xml version="1.0" encoding="iso-8859-1"?>
<!-- Generator: Adobe Illustrator 19.0.0, SVG Export Plug-In . SVG Version: 6.00 Build 0)  -->
<svg xmlns="http://www.w3.org/2000/svg" xmlns:xlink="http://www.w3.org/1999/xlink" version="1.1" id="Capa_1" x="0px" y="0px" viewBox="0 0 512 512" style="enable-background:new 0 0 512 512;" xml:space="preserve" width="512" height="512">
<g>
	<path d="M512,103.693c0-30.656-24.94-55.597-55.597-55.597c-21.493,0-40.84,12.479-50.01,31.308   C364.47,43.586,311.739,24.048,256,24.048c-36.788,0-71.97,8.362-104.57,24.855c-3.696,1.87-5.176,6.382-3.307,10.078   c1.87,3.696,6.382,5.176,10.078,3.307c30.481-15.421,63.386-23.24,97.799-23.24c57.95,0,112.431,22.567,153.408,63.543   c40.977,40.977,63.543,95.458,63.543,153.408s-22.567,112.431-63.543,153.408C368.431,450.385,313.95,472.952,256,472.952   s-112.431-22.567-153.408-63.543C61.615,368.431,39.048,313.95,39.048,256c0-70.888,34.76-137.456,92.983-178.068   c3.397-2.37,4.23-7.045,1.861-10.442c-2.369-3.397-7.043-4.231-10.442-1.861c-6.202,4.326-12.143,8.939-17.834,13.793   c-9.166-18.839-28.519-31.325-50.019-31.325C24.94,48.097,0,73.037,0,103.693c0,27.26,19.727,49.985,45.652,54.689   C31.634,188.568,24.048,221.808,24.048,256c0,61.957,24.127,120.205,67.937,164.015c43.81,43.81,102.058,67.937,164.015,67.937   s120.205-24.127,164.015-67.937c43.81-43.81,67.937-102.058,67.937-164.015c0-34.294-7.405-67.446-21.436-97.648   C492.358,153.581,512,130.895,512,103.693z M93.877,90.162c-3.977,3.892-7.811,7.908-11.481,12.056   C75.148,83.61,58.113,69.877,37.94,67.143c5.342-2.591,11.332-4.046,17.657-4.046C72.845,63.097,88.201,74.096,93.877,90.162z    M15,103.693c0-7.62,2.114-14.754,5.781-20.854c3.179-0.785,6.451-1.205,9.765-1.205c20.209,0,37.395,15.135,40.188,34.887   c-6.621,8.802-12.603,18.046-17.897,27.665C31.735,142.762,15,125.15,15,103.693z M418.128,90.145   c5.681-16.056,21.032-27.048,38.275-27.048c6.325,0,12.315,1.455,17.657,4.046c-20.165,2.733-37.192,16.455-44.447,35.05   c-3.09-3.479-6.281-6.89-9.599-10.208C419.392,91.363,418.757,90.759,418.128,90.145z M459.318,144.174   c-5.314-9.628-11.334-18.904-18.036-27.762c2.842-19.698,20-34.778,40.172-34.778c3.314,0,6.586,0.421,9.765,1.205   c3.667,6.099,5.781,13.233,5.781,20.854C497,125.097,480.347,142.674,459.318,144.174z"/>
	<path d="M159.807,247.468c12.976,0,23.532-10.557,23.532-23.532s-10.557-23.532-23.532-23.532s-23.532,10.557-23.532,23.532   S146.831,247.468,159.807,247.468z M159.807,215.403c4.705,0,8.532,3.828,8.532,8.532s-3.828,8.532-8.532,8.532   s-8.532-3.828-8.532-8.532S155.102,215.403,159.807,215.403z"/>
	<path d="M375.726,223.936c0-12.976-10.557-23.532-23.532-23.532s-23.532,10.557-23.532,23.532s10.557,23.532,23.532,23.532   S375.726,236.911,375.726,223.936z M343.661,223.936c0-4.705,3.828-8.532,8.532-8.532s8.532,3.828,8.532,8.532   s-3.828,8.532-8.532,8.532S343.661,228.64,343.661,223.936z"/>
	<path d="M226.94,245.539c3.795-1.66,5.527-6.082,3.868-9.876c-1.66-3.796-6.083-5.527-9.876-3.868   c-31.949,13.969-52.592,45.496-52.592,80.318v48.097c0,48.337,39.325,87.662,87.661,87.662s87.661-39.325,87.661-87.662v-48.097   c0-34.822-20.644-66.349-52.592-80.318c-3.796-1.659-8.217,0.072-9.876,3.868c-1.659,3.795,0.072,8.217,3.868,9.876   c26.486,11.581,43.601,37.713,43.601,66.574v48.097c0,17.965-18.211,32.581-40.597,32.581c-10.211,0-20.004-3.116-27.575-8.774   c-0.14-0.104-0.292-0.181-0.438-0.274h7.972c19.606,0,35.556-15.95,35.556-35.556s-15.95-35.557-35.556-35.557h-24.049   c-19.606,0-35.556,15.951-35.556,35.557s15.95,35.556,35.556,35.556h7.972c-0.145,0.094-0.298,0.17-0.438,0.274   c-7.571,5.658-17.364,8.774-27.575,8.774c-22.385,0-40.597-14.616-40.597-32.581v-48.097   C183.339,283.251,200.454,257.119,226.94,245.539z M223.419,348.186c0-11.335,9.222-20.557,20.556-20.557h24.049   c11.334,0,20.556,9.222,20.556,20.557c0,11.334-9.222,20.556-20.556,20.556h-24.049   C232.641,368.742,223.419,359.52,223.419,348.186z M223.936,407.791c11.519,0,22.71-3.074,32.064-8.735   c9.354,5.662,20.546,8.735,32.064,8.735c10.096,0,19.564-2.327,27.733-6.369c-13.123,18.981-35.027,31.45-59.798,31.45   s-46.675-12.468-59.798-31.45C204.372,405.464,213.839,407.791,223.936,407.791z"/>
</g>















</svg>
