<?xml version="1.0" standalone="no"?>
<!DOCTYPE svg PUBLIC "-//W3C//DTD SVG 20010904//EN"
 "http://www.w3.org/TR/2001/REC-SVG-20010904/DTD/svg10.dtd">
<svg version="1.0" xmlns="http://www.w3.org/2000/svg"
 width="700.000000pt" height="700.000000pt" viewBox="0 0 700.000000 700.000000"
 preserveAspectRatio="xMidYMid meet">
<metadata>
Created by potrace 1.11, written by Peter Selinger 2001-2013
</metadata>
<g transform="translate(0.000000,700.000000) scale(0.100000,-0.100000)"
fill="#000000" stroke="none">
<path d="M1247 6984 c-320 -58 -588 -254 -735 -539 -48 -94 -60 -124 -82 -208
-38 -153 -43 -287 -16 -457 14 -92 78 -251 138 -348 23 -37 45 -69 48 -72 3
-3 27 -32 55 -65 27 -33 52 -62 55 -65 8 -7 152 -171 168 -191 9 -13 10 -23 1
-45 -19 -49 -110 -308 -114 -324 -2 -8 -13 -40 -23 -70 -11 -30 -56 -158 -100
-285 -44 -126 -113 -322 -152 -435 -39 -113 -91 -261 -115 -330 -23 -69 -80
-231 -125 -360 -183 -523 -219 -647 -237 -815 -9 -91 -9 -341 0 -430 36 -329
173 -664 389 -945 71 -92 238 -254 342 -332 166 -124 506 -303 771 -406 233
-90 517 -172 688 -196 27 -4 59 -9 70 -12 74 -15 95 -18 202 -29 33 -3 94 -10
135 -14 83 -10 1772 -8 1806 1 11 4 54 9 95 12 41 4 86 8 99 11 14 2 79 13
145 24 247 41 445 96 700 191 154 57 436 190 558 263 43 26 81 47 83 47 3 0
33 19 67 42 420 282 702 704 801 1198 24 120 30 195 30 360 0 310 -17 380
-244 1030 -45 129 -106 305 -135 390 -30 85 -68 196 -86 245 -17 50 -65 187
-106 305 -41 118 -106 305 -145 415 -38 110 -92 265 -119 344 l-49 143 87 99
c158 179 231 273 276 354 25 45 48 92 51 106 4 13 11 33 16 44 8 16 30 96 33
115 0 3 6 31 13 63 11 55 12 287 1 332 -3 11 -10 40 -16 65 -89 385 -408 692
-801 771 -30 6 -107 13 -170 14 -179 6 -333 -28 -485 -106 -145 -74 -219 -135
-380 -315 -44 -49 -87 -96 -95 -104 -8 -8 -33 -35 -54 -60 -22 -25 -78 -87
-124 -137 l-85 -93 -882 0 -882 0 -59 67 c-57 65 -143 162 -154 173 -3 3 -46
50 -95 105 -156 173 -188 205 -260 260 -124 95 -265 160 -409 191 -100 22
-293 25 -389 8z m346 -418 c120 -38 214 -101 319 -218 40 -44 94 -104 120
-132 26 -28 45 -52 44 -54 -2 -1 -12 -4 -22 -6 -125 -25 -225 -57 -332 -107
-35 -16 -65 -29 -68 -29 -13 0 -177 -109 -234 -155 -134 -110 -216 -200 -305
-332 -26 -40 -51 -73 -54 -73 -7 0 -27 22 -98 105 -102 120 -155 256 -156 398
-2 298 195 546 487 613 73 17 229 11 299 -10z m4089 13 c77 -15 82 -17 140
-42 31 -14 85 -47 120 -73 125 -93 193 -202 237 -378 10 -39 8 -188 -3 -236
-26 -117 -83 -220 -178 -324 l-64 -69 -44 69 c-201 309 -523 535 -877 613 -47
11 -87 21 -89 24 -3 2 1 11 8 18 7 8 49 54 93 103 119 133 126 139 179 180
134 102 319 146 478 115z m-739 -841 c296 -82 539 -281 666 -549 32 -67 124
-314 171 -459 4 -14 40 -117 80 -230 40 -113 78 -223 85 -245 7 -22 43 -125
80 -230 36 -104 86 -246 110 -315 65 -188 194 -560 275 -790 162 -465 175
-521 174 -780 -1 -298 -76 -545 -242 -795 -77 -115 -242 -287 -345 -360 -136
-96 -375 -223 -577 -307 -101 -43 -282 -109 -287 -105 -1 2 9 45 22 97 13 52
27 120 31 150 15 105 9 415 -10 516 -2 11 -7 57 -11 104 -4 47 -8 87 -10 90
-2 3 -6 43 -10 90 -4 47 -8 87 -10 90 -2 3 -6 40 -10 83 -3 43 -8 86 -10 95
-1 9 -6 49 -9 87 -4 39 -9 81 -11 95 -2 14 -7 57 -10 95 -3 39 -8 77 -10 85
-2 8 -6 42 -9 75 -11 114 -16 160 -21 200 -2 22 -9 81 -15 130 -23 202 -26
219 -41 280 -46 178 -135 332 -273 470 -149 149 -349 254 -536 282 -19 3 -53
8 -75 12 -71 12 -1192 5 -1270 -8 -263 -45 -503 -194 -663 -413 -82 -112 -161
-299 -177 -416 -2 -15 -6 -45 -8 -67 -3 -22 -9 -65 -12 -95 -4 -30 -8 -66 -10
-80 -2 -14 -6 -56 -10 -95 -3 -38 -7 -81 -10 -95 -2 -14 -7 -52 -10 -85 -8
-82 -15 -144 -20 -185 -4 -38 -14 -124 -20 -180 -2 -19 -7 -57 -10 -85 -3 -27
-7 -68 -10 -90 -12 -130 -18 -182 -21 -200 -3 -11 -7 -50 -10 -86 -2 -37 -7
-77 -9 -89 -2 -13 -7 -55 -11 -94 -3 -39 -9 -75 -11 -79 -9 -15 -12 -361 -3
-407 4 -25 10 -63 13 -86 3 -22 15 -73 26 -114 12 -40 19 -75 18 -76 -4 -5
-179 58 -279 100 -111 46 -319 149 -431 214 -141 81 -215 139 -327 251 -207
208 -340 461 -396 756 -25 127 -24 484 1 525 2 3 6 23 9 45 7 41 102 331 221
670 61 173 155 444 270 775 24 69 78 224 120 345 64 185 150 431 270 775 78
225 185 382 350 516 134 108 316 187 491 213 33 5 649 8 1369 7 l1310 -1 98
-27z m-834 -2452 c148 -35 238 -88 343 -200 94 -99 147 -228 163 -399 3 -37 8
-76 10 -85 1 -9 6 -55 10 -102 4 -47 8 -87 10 -90 2 -3 6 -41 9 -85 4 -44 9
-87 11 -95 2 -8 6 -46 10 -85 3 -38 8 -81 10 -95 2 -14 6 -52 9 -85 4 -33 8
-78 11 -100 2 -22 7 -61 10 -87 3 -27 7 -67 10 -90 7 -66 14 -127 20 -198 4
-36 8 -72 10 -80 2 -8 7 -46 10 -85 4 -38 10 -97 15 -130 12 -91 9 -273 -6
-354 -18 -92 -58 -211 -97 -281 -61 -113 -58 -109 -106 -115 -26 -4 -59 -8
-76 -10 -121 -17 -295 -20 -1005 -20 -687 0 -905 4 -990 20 -8 1 -38 6 -66 9
-30 5 -54 14 -60 24 -135 216 -186 453 -155 713 6 46 13 109 16 139 3 30 8 78
11 105 4 28 8 61 9 75 5 59 19 186 30 268 2 20 7 62 10 92 3 30 7 71 10 90 2
19 7 62 10 95 3 33 10 98 15 145 6 47 12 105 15 130 21 192 26 243 30 270 2
14 7 57 10 95 20 220 101 372 260 490 79 59 189 103 280 113 72 8 1150 7 1184
-2z"/>
<path d="M2066 4521 c-1 -3 -2 -96 -2 -206 l1 -200 195 0 c107 -1 200 2 205 6
7 5 10 82 10 206 l-1 198 -203 1 c-111 0 -203 -2 -205 -5z"/>
<path d="M4529 4520 c-4 -17 -3 -400 1 -401 30 -7 393 -2 399 6 4 5 7 98 7
205 l-1 195 -203 0 c-111 1 -203 -2 -203 -5z"/>
<path d="M2886 2685 c1 -110 2 -202 3 -205 0 -3 85 -6 189 -5 103 1 194 -1
202 -3 14 -3 15 -68 15 -545 l-1 -543 -26 -44 c-33 -57 -74 -87 -138 -102 -56
-13 -114 -1 -162 34 -35 25 -78 97 -78 131 0 15 -3 28 -7 28 -5 1 -99 2 -209
3 l-201 2 4 -46 c22 -250 184 -455 430 -541 165 -58 405 -17 544 92 46 36 52
36 98 1 174 -137 430 -157 642 -52 169 84 305 273 325 455 3 27 7 59 9 70 3
20 -2 20 -199 19 -110 -1 -204 -2 -207 -3 -4 0 -9 -18 -13 -38 -14 -93 -97
-157 -201 -157 -76 0 -132 32 -172 101 l-27 47 -1 543 c0 361 3 543 10 544 5
1 98 2 205 3 l195 1 0 198 c0 109 -2 202 -5 205 -3 4 -280 8 -615 7 l-610 0 1
-200z"/>
</g>
</svg>
